ply
format ascii 1.0
comment Created by Blender 2.68 (sub 0) - www.blender.org, source file: 'Bowlingball.blend'
element vertex 437
property float x
property float y
property float z
property float nx
property float ny
property float nz
property float s
property float t
element face 828
property list uchar uint vertex_indices
end_header
-0.780742 0.000000 -0.780742 -0.711173 0.000000 -0.702994 0.997853 0.250000
-0.893265 0.000000 -0.648995 -0.811823 0.000000 -0.583880 0.997853 0.300000
-0.844865 0.290043 -0.648995 -0.767815 0.263588 -0.583880 0.945343 0.300000
-1.104136 0.000000 -0.000000 -0.999969 0.000000 0.000000 0.997853 0.500000
-1.090542 0.000000 0.172725 -0.987884 0.000000 0.155156 0.997853 0.550000
-1.044311 0.358513 -0.000000 -0.945799 0.324686 0.000000 0.945343 0.500000
-0.780742 0.000000 0.780742 -0.711173 0.000000 0.702994 0.997853 0.750000
-0.648995 0.000000 0.893265 -0.593127 0.000000 0.805078 0.997853 0.800000
-0.613830 0.210729 0.893265 -0.560991 0.192572 0.805078 0.945343 0.800000
-0.648994 0.000000 -0.893265 -0.593127 0.000000 -0.805078 0.997853 0.200000
-0.738439 0.253507 -0.780742 -0.672628 0.230903 -0.702994 0.945343 0.250000
-1.090542 0.000000 -0.172725 -0.987884 0.000000 -0.155156 0.997853 0.450000
-0.893265 0.000000 0.648995 -0.811823 0.000000 0.583880 0.997853 0.700000
-0.738439 0.253507 0.780742 -0.672628 0.230903 0.702994 0.945343 0.750000
-0.501267 0.000000 -0.983793 -0.460463 0.000000 -0.887661 0.997853 0.150000
-0.474107 0.162761 -0.983793 -0.435530 0.149510 -0.887661 0.945343 0.150000
-1.050096 0.000000 -0.341197 -0.951811 0.000000 -0.306619 0.997853 0.400000
-1.031454 0.354099 -0.172725 -0.934355 0.320750 -0.155156 0.945343 0.450000
-0.983792 0.000000 0.501267 -0.892666 0.000000 0.450667 0.997853 0.650000
-0.844865 0.290043 0.648995 -0.767815 0.263588 0.583880 0.945343 0.700000
-0.341197 0.000000 1.050096 -0.316416 0.000000 0.948607 0.997853 0.900000
-0.172725 0.000000 1.090542 -0.164464 0.000000 0.986358 0.997853 0.950000
-0.163366 0.056084 1.090542 -0.155553 0.053377 0.986358 0.945343 0.950000
-0.341196 0.000000 -1.050096 -0.316416 0.000000 -0.948607 0.997853 0.100000
-0.983792 0.000000 -0.501268 -0.892666 0.000000 -0.450667 0.997853 0.350000
-0.993199 0.340966 -0.341197 -0.900235 0.309030 -0.306619 0.945343 0.400000
-1.050096 0.000000 0.341197 -0.951811 0.000000 0.306619 0.997853 0.600000
-0.930488 0.319437 0.501267 -0.844295 0.289834 0.450667 0.945343 0.650000
-0.501267 0.000000 0.983792 -0.460463 0.000000 0.887661 0.997853 0.850000
-0.322710 0.110787 1.050096 -0.299295 0.102725 0.948607 0.945343 0.900000
-0.172724 0.000000 -1.090542 -0.164464 0.000000 -0.986358 0.997854 0.050000
-0.322709 0.110786 -1.050096 -0.299295 0.102725 -0.948607 0.945343 0.100000
-0.930488 0.319437 -0.501268 -0.844295 0.289834 -0.450667 0.945343 0.350000
-0.993199 0.340966 0.341197 -0.900235 0.309030 0.306619 0.945343 0.600000
-0.474107 0.162762 0.983792 -0.435530 0.149510 0.887661 0.945343 0.850000
-0.616115 0.479542 0.780742 -0.561205 0.436811 0.702994 0.892832 0.750000
-0.613830 0.210728 -0.893265 -0.560991 0.192572 -0.805078 0.945343 0.200000
-0.512148 0.398621 -0.893265 -0.468062 0.364299 -0.805078 0.892832 0.200000
-0.871318 0.678175 -0.000000 -0.789117 0.614185 0.000000 0.892833 0.500000
-0.704911 0.548655 0.648995 -0.640614 0.498611 0.583880 0.892833 0.700000
-0.860591 0.669825 -0.172725 -0.779565 0.606769 -0.155156 0.892833 0.450000
-0.136304 0.106090 1.090542 -0.129765 0.101016 0.986358 0.892832 0.950000
-0.269251 0.209568 -1.050096 -0.249702 0.194342 -0.948607 0.892832 0.100000
-0.776350 0.604258 -0.501268 -0.704428 0.548265 -0.450667 0.892833 0.350000
-0.828673 0.644983 0.341197 -0.751122 0.584613 0.306619 0.892833 0.600000
-0.269252 0.209568 1.050096 -0.249733 0.196600 0.948119 0.892832 0.900000
-0.163365 0.056084 -1.090542 -0.155553 0.053377 -0.986358 0.945343 0.050000
-0.136303 0.106090 -1.090542 -0.129765 0.101016 -0.986358 0.892832 0.050000
-1.031454 0.354099 0.172725 -0.934355 0.320750 0.155156 0.945343 0.550000
-0.512148 0.398621 0.893265 -0.472640 0.363659 0.802698 0.892832 0.800000
-0.704911 0.548655 -0.648995 -0.640614 0.498611 -0.583880 0.892833 0.300000
-0.860591 0.669825 0.172725 -0.779565 0.606769 0.155156 0.892833 0.550000
-0.616115 0.479542 -0.780742 -0.561205 0.436811 -0.702994 0.892833 0.250000
-0.354966 0.543317 -0.893265 -0.324381 0.496536 -0.805078 0.840322 0.200000
-0.603905 0.924346 -0.000000 -0.546922 0.837153 0.000000 0.840322 0.500000
-0.488569 0.747812 0.648995 -0.444014 0.679617 0.583880 0.840322 0.700000
-0.395570 0.307885 -0.983793 -0.363384 0.282815 -0.887661 0.892832 0.150000
-0.828673 0.644983 -0.341197 -0.751122 0.584613 -0.306619 0.892833 0.400000
-0.574347 0.879106 -0.341197 -0.520585 0.796838 -0.306619 0.840322 0.400000
-0.776350 0.604258 0.501267 -0.704428 0.548265 0.450667 0.892833 0.650000
-0.094471 0.144600 1.090542 -0.089938 0.137669 0.986358 0.840321 0.950000
-0.274166 0.419644 -0.983793 -0.251839 0.385479 -0.887661 0.840322 0.150000
-0.538083 0.823599 -0.501268 -0.488235 0.747307 -0.450667 0.840322 0.350000
-0.538083 0.823599 0.501267 -0.488235 0.747307 0.450667 0.840322 0.650000
-0.235259 0.412133 0.768425 0.037599 -0.057344 0.997620 0.788010 0.830191
-0.165401 0.393532 0.796442 -0.751183 0.230201 0.618610 0.777395 0.836833
-0.186787 0.424269 0.776028 -0.428083 -0.144444 0.892087 0.777166 0.821783
-0.186616 0.285639 -1.050096 -0.173070 0.264901 -0.948607 0.840322 0.100000
-0.488569 0.747812 -0.648995 -0.444014 0.679617 -0.583880 0.840322 0.300000
-0.596470 0.912966 0.172725 -0.537858 0.828486 0.155736 0.840322 0.550000
-0.297027 0.425186 0.971648 0.186834 0.808863 0.557451 0.811962 0.837112
-0.395570 0.307885 0.983792 -0.361034 0.276864 0.890469 0.892832 0.850000
-0.264044 0.415469 0.986012 -0.171056 0.855983 0.487838 0.800256 0.851295
-0.190761 0.614496 0.896345 -0.278054 0.177892 0.943937 0.767822 0.803395
-0.191660 0.756852 0.780742 -0.172308 0.688345 0.704611 0.787812 0.750000
-0.275959 0.592171 0.882634 -0.093966 0.117405 0.988617 0.781251 0.796914
-0.427025 0.653611 -0.780742 -0.388958 0.595355 -0.702994 0.840322 0.250000
-0.191660 0.756852 -0.780742 -0.174566 0.689413 -0.702994 0.787812 0.250000
-0.596470 0.912966 -0.172725 -0.540300 0.827021 -0.155156 0.840322 0.450000
-0.271049 1.070351 -0.000000 -0.248360 0.968596 0.008667 0.787812 0.500000
-0.427025 0.653612 0.780742 -0.388318 0.593677 0.704794 0.840322 0.750000
-0.159318 0.629136 -0.893265 -0.145604 0.574969 -0.805078 0.787812 0.200000
-0.267711 1.057173 -0.172725 -0.242500 0.957640 -0.155156 0.787812 0.450000
-0.219283 0.865932 0.648995 -0.199286 0.786981 0.583880 0.787812 0.700000
-0.186617 0.285639 1.050096 -0.177068 0.264840 0.947874 0.840322 0.900000
-0.042401 0.167440 1.090542 -0.040345 0.159429 0.986358 0.787811 0.950000
-0.123053 0.485929 -0.983793 -0.113041 0.446394 -0.887661 0.787812 0.150000
-0.257782 1.017964 -0.341197 -0.233650 0.922697 -0.306619 0.787812 0.400000
-0.050218 0.767341 0.085767 -0.066012 0.507981 0.858791 0.733759 0.565555
0.025019 0.764550 0.144074 -0.706290 0.685446 0.176916 0.718566 0.559257
0.015977 0.775193 0.101326 -0.563402 0.455824 0.689016 0.720496 0.541783
-0.353119 0.517964 0.908320 0.192450 0.457686 0.868007 0.808244 0.807713
-0.328924 0.458711 0.948400 0.310160 0.657765 0.686361 0.814236 0.822560
-0.094471 0.144600 -1.090542 -0.089938 0.137669 -0.986358 0.840322 0.050000
-0.042401 0.167440 -1.090542 -0.040345 0.159429 -0.986358 0.787811 0.050000
-0.241506 0.953689 -0.501268 -0.219123 0.865352 -0.450667 0.787812 0.350000
-0.574348 0.879106 0.341197 -0.515275 0.800317 0.306467 0.840322 0.600000
-0.241506 0.953689 0.501267 -0.232154 0.869289 0.436354 0.787812 0.650000
-0.219283 0.865932 -0.648995 -0.199286 0.786981 -0.583880 0.787812 0.300000
0.064474 0.778076 0.780742 0.057558 0.707816 0.704001 0.735301 0.750000
0.094196 0.636761 0.895955 0.261757 0.149571 0.953459 0.703917 0.801956
0.166473 0.631093 0.881786 0.082553 0.109806 0.990509 0.690759 0.797702
0.055664 0.489101 0.986099 0.324351 0.741478 0.587329 0.706062 0.853669
-0.083758 0.330757 1.050096 -0.074129 0.311960 0.947172 0.787811 0.900000
0.028177 0.340032 1.050096 0.019929 0.317057 0.948180 0.735301 0.900000
0.053595 0.646779 -0.893265 0.048952 0.591083 -0.805078 0.735301 0.200000
0.091180 1.100366 -0.000000 0.084872 0.996368 0.004334 0.735301 0.500000
0.041395 0.499555 -0.983793 0.038026 0.458907 -0.887661 0.735301 0.150000
0.090057 1.086818 -0.172725 0.081576 0.984497 -0.155156 0.735301 0.450000
0.073766 0.890215 0.648995 0.067019 0.809046 0.583880 0.735301 0.700000
-0.083758 0.330756 -1.050096 -0.077670 0.306742 -0.948607 0.787811 0.100000
0.086717 1.046510 -0.341197 0.078585 0.948576 -0.306619 0.735301 0.400000
-0.274900 1.033319 0.246017 0.264138 0.918912 0.292886 0.762260 0.572194
0.157407 0.469622 0.765980 0.016541 -0.122227 0.992340 0.680403 0.817029
0.196736 0.421633 0.789329 -0.618671 0.569414 0.541246 0.664321 0.830197
0.195212 0.450984 0.773320 -0.554125 0.100162 0.826350 0.668310 0.819545
0.014264 0.172135 -1.090542 0.013581 0.163884 -0.986358 0.735301 0.050000
0.081242 0.980433 -0.501268 0.073702 0.889615 -0.450667 0.735301 0.350000
0.057469 0.625263 0.909833 0.319193 0.325358 0.890072 0.712811 0.809292
-0.149993 0.598494 0.915565 -0.411512 0.252144 0.875790 0.760468 0.812554
0.033839 0.558800 0.948841 0.478835 0.361400 0.800043 0.718552 0.829542
0.064474 0.778076 -0.780742 0.058718 0.708731 -0.702994 0.735301 0.250000
0.421820 0.961650 0.341197 0.380139 0.872280 0.307566 0.682791 0.600000
0.081242 0.980433 0.501267 0.083316 0.892148 0.443953 0.735301 0.650000
0.395186 0.900932 0.501267 0.358562 0.817469 0.450667 0.682791 0.650000
0.313622 0.714984 0.780742 0.284616 0.649861 0.704733 0.682791 0.750000
0.438067 0.998690 -0.172725 0.396802 0.904660 -0.155156 0.682791 0.450000
0.358822 0.818029 0.648995 0.326090 0.743431 0.583880 0.682791 0.700000
0.260699 0.594333 -0.893265 0.238227 0.543168 -0.805078 0.682791 0.200000
0.014265 0.172136 1.090542 0.013581 0.163884 0.986358 0.735300 0.950000
0.069384 0.158178 1.090542 0.066042 0.150609 0.986358 0.682790 0.950000
0.028177 0.340032 -1.050096 0.026124 0.315348 -0.948607 0.735301 0.100000
0.201358 0.459047 -0.983793 0.184973 0.421705 -0.887661 0.682791 0.150000
0.395186 0.900931 -0.501268 0.358562 0.817469 -0.450667 0.682791 0.350000
0.091351 1.044953 0.315540 -0.347972 0.937376 -0.014801 0.714178 0.586931
0.112620 1.063424 0.250781 -0.391705 0.885739 0.248939 0.704237 0.568709
0.069384 0.158177 -1.090542 0.066042 0.150609 -0.986358 0.682790 0.050000
0.073766 0.890214 -0.648995 0.067019 0.809046 -0.583880 0.735301 0.300000
0.443528 1.011139 -0.000000 0.401685 0.915769 0.000000 0.682791 0.500000
0.438067 0.998690 0.172725 0.396496 0.904935 0.154485 0.682791 0.550000
0.358822 0.818029 -0.648995 0.326090 0.743431 -0.583880 0.682791 0.300000
0.231088 0.251027 1.050096 0.213935 0.235115 0.948119 0.630280 0.900000
0.339501 0.368795 0.983792 0.308664 0.337657 0.889187 0.630280 0.850000
0.186285 0.453003 0.987344 0.067385 0.841121 0.536607 0.673541 0.849220
0.313622 0.714983 -0.780742 0.285653 0.651265 -0.702994 0.682791 0.250000
0.439553 0.477481 -0.893265 0.401715 0.436354 -0.805078 0.630280 0.200000
0.421820 0.961650 -0.341197 0.382336 0.871639 -0.306619 0.682791 0.400000
0.738606 0.802338 -0.172725 0.669057 0.726798 -0.155156 0.630280 0.450000
0.666306 0.723800 0.501267 0.604572 0.656758 0.450667 0.630280 0.650000
0.137058 0.312460 1.050096 0.132481 0.287393 0.948576 0.682791 0.900000
0.116985 0.127079 1.090542 0.111362 0.120975 0.986358 0.630280 0.950000
0.137058 0.312459 -1.050096 0.127110 0.289773 -0.948607 0.682791 0.100000
0.339500 0.368794 -0.983793 0.311869 0.338786 -0.887661 0.630280 0.150000
0.666306 0.723800 -0.501268 0.604572 0.656758 -0.450667 0.630280 0.350000
0.711212 0.772581 0.341197 0.644642 0.700278 0.306619 0.630280 0.600000
0.439554 0.477481 0.893265 0.404096 0.436171 0.804010 0.630280 0.800000
0.242851 0.511841 0.944343 -0.401349 0.555193 0.728446 0.661048 0.829308
0.231087 0.251027 -1.050096 0.214301 0.232795 -0.948607 0.630280 0.100000
0.528784 0.574411 0.780742 0.481643 0.523209 0.702994 0.630280 0.750000
0.604993 0.657197 -0.648995 0.549821 0.597278 -0.583880 0.630280 0.300000
0.738606 0.802339 0.172725 0.669057 0.726798 0.155156 0.630280 0.550000
0.747813 0.812340 -0.000000 0.677267 0.735710 0.000000 0.630280 0.500000
0.570775 0.308888 -0.893265 0.521622 0.282296 -0.805078 0.577770 0.200000
0.711212 0.772581 -0.341197 0.644642 0.700278 -0.306619 0.630280 0.400000
0.959105 0.519041 -0.172725 0.868801 0.470168 -0.155156 0.577770 0.450000
0.604993 0.657197 0.648995 0.549821 0.597278 0.583880 0.630280 0.700000
0.865221 0.468234 0.501267 0.785058 0.424848 0.450667 0.577770 0.650000
0.151909 0.082208 1.090542 0.144627 0.078249 0.986358 0.577770 0.949999
0.440853 0.238577 -0.983793 0.404981 0.219153 -0.887661 0.577770 0.150000
0.865221 0.468234 -0.501268 0.785058 0.424848 -0.450667 0.577770 0.350000
0.300075 0.162392 1.050096 0.278298 0.150609 0.948607 0.577770 0.899999
0.116984 0.127078 -1.090542 0.111362 0.120975 -0.986358 0.630280 0.050000
0.300075 0.162392 -1.050096 0.278298 0.150609 -0.948607 0.577770 0.100000
0.959105 0.519041 0.172725 0.868801 0.470168 0.155156 0.577770 0.550000
0.440853 0.238577 0.983792 0.404981 0.219153 0.887661 0.577770 0.850000
0.528784 0.574411 -0.780742 0.481643 0.523209 -0.702994 0.630280 0.250000
0.785604 0.425147 -0.648995 0.713950 0.386364 -0.583880 0.577770 0.300000
0.570776 0.308888 0.893265 0.521622 0.282296 0.805078 0.577770 0.800000
0.686643 0.371592 -0.780742 0.625446 0.338481 -0.702994 0.577770 0.250000
0.785605 0.425147 0.648995 0.713950 0.386364 0.583880 0.577770 0.700000
0.640145 0.106821 -0.893265 0.585040 0.097598 -0.805078 0.525260 0.200000
0.923533 0.499790 -0.341197 0.837092 0.453017 -0.306619 0.577770 0.400000
1.075670 0.179497 -0.172725 0.974395 0.162572 -0.155156 0.525260 0.450000
0.970376 0.161927 0.501267 0.880490 0.146916 0.450667 0.525260 0.650000
0.170371 0.028430 1.090542 0.162206 0.027070 0.986358 0.525260 0.949999
0.494432 0.082506 -0.983793 0.454207 0.075777 -0.887661 0.525260 0.150000
0.970376 0.161927 -0.501268 0.880490 0.146916 -0.450667 0.525260 0.350000
0.923533 0.499791 0.341197 0.837092 0.453017 0.306619 0.577770 0.600000
1.035775 0.172840 0.341197 0.938841 0.156652 0.306619 0.525260 0.600000
0.494432 0.082506 0.983792 0.454207 0.075777 0.887661 0.525260 0.850000
0.151908 0.082208 -1.090542 0.144627 0.078249 -0.986358 0.577770 0.050000
0.336544 0.056159 -1.050096 0.312113 0.052065 -0.948607 0.525260 0.100000
1.075670 0.179497 0.172725 0.974395 0.162572 0.155156 0.525260 0.550000
0.881083 0.147027 -0.648995 0.800745 0.133610 -0.583880 0.525260 0.300000
0.971060 0.525511 -0.000000 0.879452 0.475936 0.000000 0.577770 0.500000
0.686644 0.371592 0.780742 0.625446 0.338481 0.702994 0.577770 0.750000
0.770096 0.128506 0.780742 0.701468 0.117038 0.702994 0.525260 0.750000
1.035775 0.172840 -0.341197 0.938841 0.156652 -0.306619 0.525260 0.400000
1.075670 -0.179498 -0.172725 0.974395 -0.162572 -0.155156 0.472749 0.450000
0.881083 0.147026 0.648995 0.800745 0.133610 0.583880 0.525260 0.700000
0.970376 -0.161927 0.501267 0.880490 -0.146916 0.450667 0.472749 0.650000
0.336545 0.056159 1.050096 0.312113 0.052065 0.948607 0.525260 0.899999
0.170371 -0.028430 1.090542 0.162206 -0.027070 0.986358 0.472750 0.949999
0.494432 -0.082506 -0.983793 0.454207 -0.075777 -0.887661 0.472749 0.150000
0.970376 -0.161927 -0.501268 0.880490 -0.146916 -0.450667 0.472749 0.350000
1.035775 -0.172840 0.341197 0.938841 -0.156652 0.306619 0.472749 0.600000
0.336545 -0.056159 1.050096 0.312113 -0.052065 0.948607 0.472750 0.899999
0.170370 0.028430 -1.090542 0.162206 0.027070 -0.986358 0.525260 0.050000
0.336544 -0.056159 -1.050096 0.312113 -0.052065 -0.948607 0.472749 0.100000
1.075670 -0.179498 0.172725 0.974395 -0.162572 0.155156 0.472749 0.550000
0.640145 0.106821 0.893265 0.585040 0.097598 0.805078 0.525260 0.800000
0.494432 -0.082506 0.983792 0.454207 -0.075777 0.887661 0.472750 0.850000
0.770095 0.128506 -0.780742 0.701468 0.117038 -0.702994 0.525260 0.250000
0.881083 -0.147027 -0.648995 0.800745 -0.133610 -0.583880 0.472749 0.300000
1.089079 0.181735 -0.000000 0.986358 0.164586 0.000000 0.525260 0.500000
0.770095 -0.128506 0.780742 0.701468 -0.117038 0.702994 0.472749 0.750000
0.640145 -0.106821 -0.893265 0.585040 -0.097598 -0.805078 0.472749 0.200000
0.881083 -0.147027 0.648995 0.800745 -0.133610 0.583880 0.472749 0.700000
0.865221 -0.468234 0.501267 0.785058 -0.424848 0.450667 0.420239 0.650000
0.300075 -0.162392 1.050096 0.278298 -0.150609 0.948607 0.420239 0.900000
0.440852 -0.238577 -0.983793 0.404981 -0.219153 -0.887661 0.420239 0.150000
1.035775 -0.172841 -0.341197 0.938841 -0.156652 -0.306619 0.472749 0.400000
0.865221 -0.468234 -0.501268 0.785058 -0.424848 -0.450667 0.420239 0.350000
0.923533 -0.499791 0.341197 0.837092 -0.453017 0.306619 0.420239 0.600000
0.440853 -0.238577 0.983792 0.404981 -0.219153 0.887661 0.420239 0.850000
0.170370 -0.028430 -1.090542 0.162206 -0.027070 -0.986358 0.472749 0.050000
0.300075 -0.162392 -1.050096 0.278298 -0.150609 -0.948607 0.420239 0.100000
0.959105 -0.519041 0.172725 0.868801 -0.470168 0.155156 0.420239 0.550000
0.640145 -0.106821 0.893265 0.585040 -0.097598 0.805078 0.472749 0.800000
0.770095 -0.128506 -0.780742 0.701468 -0.117038 -0.702994 0.472749 0.250000
0.785604 -0.425147 -0.648995 0.713950 -0.386364 -0.583880 0.420239 0.300000
1.089079 -0.181735 -0.000000 0.986358 -0.164586 0.000000 0.472749 0.500000
0.686644 -0.371593 0.780742 0.625446 -0.338481 0.702994 0.420239 0.750000
0.570775 -0.308888 -0.893265 0.521622 -0.282296 -0.805078 0.420239 0.200000
0.959105 -0.519041 -0.172725 0.868801 -0.470168 -0.155156 0.420239 0.450000
0.691071 -0.373989 0.774848 0.668752 -0.361888 0.649434 0.420239 0.747771
0.339500 -0.368795 -0.983793 0.311869 -0.338786 -0.887661 0.367729 0.150000
0.923533 -0.499791 -0.341197 0.837092 -0.453017 -0.306619 0.420239 0.400000
0.666306 -0.723800 -0.501268 0.604572 -0.656758 -0.450667 0.367729 0.350000
0.666306 -0.723800 0.501267 0.604572 -0.656758 0.450667 0.367729 0.650000
0.339500 -0.368795 0.983792 0.311869 -0.338786 0.887661 0.367729 0.850000
0.151908 -0.082208 -1.090542 0.144627 -0.078249 -0.986358 0.420239 0.050000
0.231087 -0.251027 -1.050096 0.214301 -0.232795 -0.948607 0.367729 0.100000
0.604993 -0.657197 -0.648995 0.549821 -0.597278 -0.583880 0.367729 0.300000
0.738605 -0.802339 0.172725 0.669057 -0.726798 0.155156 0.367729 0.550000
0.570775 -0.308888 0.893265 0.521622 -0.282296 0.805078 0.420239 0.800000
0.686643 -0.371593 -0.780742 0.625446 -0.338481 -0.702994 0.420239 0.250000
0.971060 -0.525511 -0.000000 0.879452 -0.475936 0.000000 0.420239 0.500000
0.528784 -0.574411 0.780742 0.481643 -0.523209 0.702994 0.367729 0.750000
0.439553 -0.477481 -0.893265 0.401715 -0.436354 -0.805078 0.367729 0.200000
0.738605 -0.802339 -0.172725 0.669057 -0.726798 -0.155156 0.367729 0.450000
0.604993 -0.657197 0.648995 0.549821 -0.597278 0.583880 0.367729 0.700000
0.785604 -0.425148 0.648995 0.713950 -0.386364 0.583880 0.420239 0.700000
0.151909 -0.082208 1.090542 0.144627 -0.078249 0.986358 0.420240 0.950000
0.116985 -0.127079 1.090542 0.111393 -0.120975 0.986358 0.367729 0.950000
0.201358 -0.459047 -0.983793 0.184973 -0.421705 -0.887661 0.315218 0.150000
0.711212 -0.772581 -0.341197 0.644642 -0.700278 -0.306619 0.367729 0.400000
0.395186 -0.900932 -0.501268 0.358562 -0.817469 -0.450667 0.315218 0.350000
0.711212 -0.772581 0.341197 0.644642 -0.700278 0.306619 0.367729 0.600000
0.421820 -0.961650 0.341197 0.382336 -0.871639 0.306619 0.315218 0.600000
0.231088 -0.251027 1.050096 0.214301 -0.232795 0.948607 0.367729 0.900000
0.201358 -0.459048 0.983792 0.184973 -0.421705 0.887661 0.315219 0.850000
0.116984 -0.127078 -1.090542 0.111362 -0.120975 -0.986358 0.367729 0.050000
0.069384 -0.158177 -1.090542 0.066042 -0.150609 -0.986358 0.315219 0.050000
0.358821 -0.818029 -0.648995 0.326090 -0.743431 -0.583880 0.315218 0.300000
0.438067 -0.998690 0.172725 0.396802 -0.904660 0.155156 0.315218 0.550000
0.439554 -0.477482 0.893265 0.401715 -0.436354 0.805078 0.367729 0.800000
0.528783 -0.574411 -0.780742 0.481643 -0.523209 -0.702994 0.367729 0.250000
0.747812 -0.812340 -0.000000 0.677267 -0.735710 0.000000 0.367729 0.500000
0.313622 -0.714984 0.780742 0.285653 -0.651265 0.702994 0.315218 0.750000
0.260699 -0.594333 -0.893265 0.238227 -0.543168 -0.805078 0.315218 0.200000
0.438067 -0.998690 -0.172725 0.396802 -0.904660 -0.155156 0.315218 0.450000
0.358821 -0.818029 0.648995 0.326090 -0.743431 0.583880 0.315218 0.700000
0.069384 -0.158178 1.090542 0.066042 -0.150609 0.986358 0.315219 0.950000
0.137058 -0.312459 -1.050096 0.127110 -0.289773 -0.948607 0.315219 0.100000
0.041395 -0.499555 -0.983793 0.038026 -0.458907 -0.887661 0.262708 0.150000
0.421819 -0.961650 -0.341197 0.382336 -0.871639 -0.306619 0.315218 0.400000
0.081242 -0.980433 -0.501268 0.073702 -0.889615 -0.450667 0.262708 0.350000
0.395186 -0.900932 0.501267 0.358562 -0.817469 0.450667 0.315218 0.650000
0.081242 -0.980433 0.501267 0.073702 -0.889615 0.450667 0.262708 0.650000
0.137058 -0.312460 1.050096 0.127110 -0.289773 0.948607 0.315219 0.900000
0.028177 -0.340032 1.050096 0.026124 -0.315348 0.948607 0.262708 0.900000
0.028177 -0.340032 -1.050096 0.026124 -0.315348 -0.948607 0.262708 0.100000
0.073766 -0.890214 -0.648995 0.067019 -0.809046 -0.583880 0.262708 0.300000
0.086717 -1.046510 0.341197 0.078585 -0.948576 0.306619 0.262708 0.600000
0.260699 -0.594333 0.893265 0.238227 -0.543168 0.805078 0.315218 0.800000
0.041395 -0.499556 0.983792 0.038026 -0.458907 0.887661 0.262708 0.850000
0.313621 -0.714983 -0.780742 0.285653 -0.651265 -0.702994 0.315218 0.250000
0.443527 -1.011139 -0.000000 0.401685 -0.915769 0.000000 0.315218 0.500000
0.090057 -1.086818 0.172725 0.081576 -0.984497 0.155156 0.262708 0.550000
0.064474 -0.778076 0.780742 0.058718 -0.708731 0.702994 0.262708 0.750000
0.053594 -0.646779 -0.893265 0.048952 -0.591083 -0.805078 0.262708 0.200000
0.090057 -1.086818 -0.172725 0.081576 -0.984497 -0.155156 0.262708 0.450000
0.073766 -0.890215 0.648995 0.067019 -0.809046 0.583880 0.262708 0.700000
0.014264 -0.172136 1.090542 0.013581 -0.163884 0.986358 0.262709 0.950000
-0.241506 -0.953689 0.501267 -0.219123 -0.865352 0.450667 0.210198 0.650000
-0.083758 -0.330757 1.050096 -0.077670 -0.306742 0.948607 0.210198 0.900000
0.014264 -0.172135 -1.090542 0.013581 -0.163884 -0.986358 0.262709 0.050000
-0.042401 -0.167440 -1.090542 -0.040345 -0.159429 -0.986358 0.210198 0.050000
-0.241506 -0.953689 -0.501268 -0.219123 -0.865352 -0.450667 0.210198 0.350000
-0.257783 -1.017964 0.341197 -0.233650 -0.922697 0.306619 0.210198 0.600000
0.053594 -0.646779 0.893265 0.048952 -0.591083 0.805078 0.262708 0.800000
-0.123053 -0.485929 0.983792 -0.113041 -0.446394 0.887661 0.210198 0.850000
0.064474 -0.778076 -0.780742 0.058718 -0.708731 -0.702994 0.262708 0.250000
-0.219283 -0.865932 -0.648995 -0.199286 -0.786981 -0.583880 0.210198 0.300000
0.091179 -1.100366 -0.000000 0.082553 -0.996582 0.000000 0.262708 0.500000
-0.267712 -1.057173 0.172725 -0.242500 -0.957640 0.155156 0.210198 0.550000
-0.191660 -0.756852 0.780742 -0.174566 -0.689413 0.702994 0.210198 0.750000
-0.159318 -0.629136 -0.893265 -0.145604 -0.574969 -0.805078 0.210198 0.200000
-0.267712 -1.057173 -0.172725 -0.242500 -0.957640 -0.155156 0.210198 0.450000
0.086717 -1.046510 -0.341197 0.078585 -0.948576 -0.306619 0.262708 0.400000
-0.219283 -0.865932 0.648995 -0.199286 -0.786981 0.583880 0.210198 0.700000
-0.042401 -0.167440 1.090542 -0.040345 -0.159429 0.986358 0.210198 0.950000
-0.123053 -0.485929 -0.983793 -0.113041 -0.446394 -0.887661 0.210198 0.150000
-0.274167 -0.419645 0.983792 -0.251839 -0.385479 0.887661 0.157687 0.850000
-0.083758 -0.330756 -1.050096 -0.077670 -0.306742 -0.948607 0.210198 0.100000
-0.186616 -0.285638 -1.050096 -0.173070 -0.264901 -0.948607 0.157687 0.100000
-0.488569 -0.747812 -0.648995 -0.444014 -0.679617 -0.583880 0.157687 0.300000
-0.574348 -0.879105 0.341197 -0.520585 -0.796838 0.306619 0.157687 0.600000
-0.159318 -0.629137 0.893265 -0.145604 -0.574969 0.805078 0.210198 0.800000
-0.191660 -0.756852 -0.780742 -0.174566 -0.689413 -0.702994 0.210198 0.250000
-0.271049 -1.070350 -0.000000 -0.245460 -0.969390 0.000000 0.210198 0.500000
-0.596470 -0.912966 0.172725 -0.540300 -0.827021 0.155156 0.157687 0.550000
-0.427025 -0.653612 0.780742 -0.388958 -0.595355 0.702994 0.157687 0.750000
-0.354966 -0.543317 -0.893265 -0.324412 -0.496536 -0.805078 0.157687 0.200000
-0.596470 -0.912966 -0.172725 -0.540300 -0.827021 -0.155156 0.157687 0.450000
-0.488569 -0.747812 0.648995 -0.444014 -0.679617 0.583880 0.157687 0.700000
-0.257783 -1.017964 -0.341197 -0.233650 -0.922697 -0.306619 0.210198 0.400000
-0.094471 -0.144600 1.090542 -0.089938 -0.137669 0.986358 0.157688 0.950000
-0.274167 -0.419644 -0.983793 -0.251839 -0.385479 -0.887661 0.157687 0.150000
-0.538083 -0.823598 -0.501268 -0.488235 -0.747307 -0.450667 0.157687 0.350000
-0.538083 -0.823599 0.501267 -0.488235 -0.747307 0.450667 0.157687 0.650000
-0.094471 -0.144600 -1.090542 -0.089938 -0.137669 -0.986358 0.157688 0.050000
-0.136303 -0.106090 -1.090542 -0.129765 -0.101016 -0.986358 0.105177 0.050000
-0.776350 -0.604258 -0.501268 -0.704428 -0.548265 -0.450667 0.105177 0.350000
-0.828673 -0.644982 0.341197 -0.751122 -0.584613 0.306619 0.105177 0.600000
-0.354966 -0.543317 0.893265 -0.324412 -0.496536 0.805078 0.157687 0.800000
-0.395570 -0.307885 0.983792 -0.363384 -0.282815 0.887661 0.105177 0.850000
-0.427025 -0.653611 -0.780742 -0.388958 -0.595355 -0.702994 0.157687 0.250000
-0.704911 -0.548655 -0.648995 -0.640614 -0.498611 -0.583880 0.105177 0.300000
-0.603905 -0.924346 -0.000000 -0.546922 -0.837153 0.000000 0.157687 0.500000
-0.860591 -0.669825 0.172725 -0.779565 -0.606769 0.155156 0.105177 0.550000
-0.616115 -0.479542 0.780742 -0.561205 -0.436811 0.702994 0.105177 0.750000
-0.512148 -0.398621 -0.893265 -0.468062 -0.364299 -0.805078 0.105177 0.200000
-0.860591 -0.669825 -0.172725 -0.779565 -0.606769 -0.155156 0.105177 0.450000
-0.574348 -0.879105 -0.341197 -0.520585 -0.796838 -0.306619 0.157687 0.400000
-0.704911 -0.548655 0.648995 -0.640614 -0.498611 0.583880 0.105177 0.700000
-0.186617 -0.285639 1.050096 -0.173070 -0.264901 0.948607 0.157687 0.900000
-0.136304 -0.106090 1.090542 -0.129765 -0.101016 0.986358 0.105177 0.950000
-0.395570 -0.307885 -0.983793 -0.363384 -0.282815 -0.887661 0.105177 0.150000
-0.269251 -0.209567 -1.050096 -0.249702 -0.194342 -0.948607 0.105177 0.100000
-0.163365 -0.056084 -1.090542 -0.155553 -0.053377 -0.986358 0.052667 0.050000
-0.844865 -0.290043 -0.648995 -0.767815 -0.263588 -0.583880 0.052666 0.300000
-0.993199 -0.340965 0.341197 -0.900235 -0.309030 0.306619 0.052666 0.600000
-0.512148 -0.398621 0.893265 -0.468062 -0.364299 0.805078 0.105177 0.800000
-0.474107 -0.162761 0.983792 -0.435530 -0.149510 0.887661 0.052666 0.850000
-0.616115 -0.479542 -0.780742 -0.561205 -0.436811 -0.702994 0.105177 0.250000
-0.871319 -0.678174 -0.000000 -0.789117 -0.614185 0.000000 0.105177 0.500000
-1.031454 -0.354098 0.172725 -0.934355 -0.320750 0.155156 0.052666 0.550000
-0.738439 -0.253506 0.780742 -0.672628 -0.230903 0.702994 0.052666 0.750000
-0.613830 -0.210728 -0.893265 -0.560991 -0.192572 -0.805078 0.052666 0.200000
-1.031454 -0.354098 -0.172725 -0.934355 -0.320750 -0.155156 0.052666 0.450000
-0.844865 -0.290043 0.648995 -0.767815 -0.263588 0.583880 0.052666 0.700000
-0.828673 -0.644982 -0.341197 -0.751122 -0.584613 -0.306619 0.105177 0.400000
-0.776350 -0.604258 0.501267 -0.704428 -0.548265 0.450667 0.105177 0.650000
-0.269252 -0.209568 1.050096 -0.249702 -0.194342 0.948607 0.105177 0.900000
-0.163366 -0.056084 1.090542 -0.155553 -0.053377 0.986358 0.052667 0.950000
-0.474107 -0.162761 -0.983793 -0.435530 -0.149510 -0.887661 0.052666 0.150000
-0.930488 -0.319437 -0.501268 -0.844295 -0.289834 -0.450667 0.052666 0.350000
-0.930488 -0.319437 0.501267 -0.844295 -0.289834 0.450667 0.052666 0.650000
-0.322710 -0.110787 1.050096 -0.299295 -0.102725 0.948607 0.052666 0.900000
0.000001 0.000000 -1.104136 0.000000 0.000000 -0.999969 0.413509 0.000000
0.000000 -0.000001 1.104136 0.000000 0.000000 1.000000 1.343922 1.000000
0.000000 -0.000001 1.104136 0.000000 0.000000 1.000000 0.413509 1.000000
-0.893265 0.000000 -0.648995 -0.811823 0.000000 -0.583880 0.000156 0.300000
-1.050096 0.000000 0.341197 -0.951811 0.000000 0.306619 0.000156 0.600000
-0.613831 -0.210728 0.893265 -0.560991 -0.192572 0.805078 0.052666 0.800000
-0.501267 0.000000 0.983792 -0.460463 0.000000 0.887661 0.000156 0.850000
-0.172724 0.000000 -1.090542 -0.164464 0.000000 -0.986358 0.000156 0.050000
-0.738439 -0.253506 -0.780742 -0.672628 -0.230903 -0.702994 0.052666 0.250000
-1.044311 -0.358512 -0.000000 -0.945799 -0.324686 0.000000 0.052666 0.500000
-1.090542 0.000000 0.172725 -0.987884 0.000000 0.155156 0.000156 0.550000
-0.780742 0.000000 0.780742 -0.711173 0.000000 0.702994 0.000156 0.750000
-0.648994 0.000000 -0.893265 -0.593127 0.000000 -0.805078 0.000156 0.200000
-1.090542 0.000000 -0.172725 -0.987884 0.000000 -0.155156 0.000156 0.450000
-0.163366 -0.056084 1.090542 -0.155553 -0.053377 0.986358 1.050364 0.950000
-0.993199 -0.340965 -0.341197 -0.900235 -0.309030 -0.306619 0.052666 0.400000
-0.893265 0.000000 0.648995 -0.811823 0.000000 0.583880 0.000156 0.700000
-0.322710 -0.110787 1.050096 -0.299295 -0.102725 0.948607 1.050364 0.900000
-0.322709 -0.110786 -1.050096 -0.299295 -0.102725 -0.948607 0.052666 0.100000
-0.341196 0.000000 -1.050096 -0.316416 0.000000 -0.948607 0.000156 0.100000
-0.983792 0.000000 -0.501268 -0.892666 0.000000 -0.450667 0.000156 0.350000
-0.341197 0.000000 1.050096 -0.316416 0.000000 0.948607 0.000156 0.900000
0.114806 0.415525 0.803989 0.540696 0.709220 0.452315 0.688054 0.843072
0.037466 0.508992 0.973296 0.450972 0.575243 0.682394 0.713822 0.844698
0.122431 0.467554 0.776381 0.480300 -0.116184 0.869350 0.689967 0.822497
0.210149 0.462091 0.975876 -0.216773 0.788263 0.575854 0.666494 0.844435
0.174599 0.400963 0.802608 -0.213874 0.912320 0.349101 0.668000 0.840931
0.248278 0.572066 0.913621 -0.366955 0.431623 0.824030 0.666600 0.809614
0.233941 0.602113 0.889233 -0.247017 0.290201 0.924497 0.675534 0.800024
0.108469 0.446166 0.788951 0.673666 0.262185 0.690909 0.692470 0.831966
0.139265 0.402408 0.809828 0.252266 0.926633 0.278726 0.679015 0.845647
0.126274 0.462204 0.993387 0.234291 0.840724 0.488113 0.688462 0.856685
-0.237807 0.329274 0.812292 0.074160 0.957427 0.278878 0.804495 0.841137
-0.270877 0.385275 0.774050 0.487259 0.239875 0.839625 0.798759 0.819718
-0.331793 0.555670 0.888113 0.114170 0.230689 0.966277 0.799706 0.799546
-0.125507 0.496112 0.974474 -0.558611 0.496048 0.664693 0.764454 0.842670
-0.170899 0.363945 0.811000 -0.692404 0.645466 0.322336 0.781405 0.844057
-0.146977 0.469321 0.987536 -0.462478 0.716697 0.521928 0.771585 0.850828
-0.267716 0.352459 0.794518 0.522355 0.676046 0.519700 0.803727 0.828255
-0.124836 0.550232 0.946104 -0.546861 0.299173 0.781915 0.756491 0.829095
-0.202340 0.339213 0.817238 -0.417158 0.883816 0.211615 0.792303 0.838607
-0.201025 0.438527 0.989991 -0.405133 0.828181 0.387219 0.784294 0.855671
-0.231033 1.011153 0.337478 0.106723 0.980590 -0.164312 0.752828 0.589015
-0.102703 0.732580 0.192990 0.303018 0.905087 -0.298257 0.743007 0.581232
-0.261412 1.014923 0.298112 0.257546 0.962798 0.081729 0.756940 0.584018
-0.261509 1.049089 0.197658 0.233802 0.869472 0.435102 0.760446 0.559444
-0.101324 0.755010 0.100335 0.321512 0.614368 0.720511 0.746785 0.550913
-0.226640 1.060071 0.163228 0.246101 0.765648 0.594287 0.753564 0.548201
0.013950 0.752411 0.192133 -0.580035 0.767510 -0.272835 0.720580 0.579569
0.057858 1.039388 0.346169 -0.208655 0.959288 -0.190191 0.723072 0.593170
0.091430 1.079446 0.195915 -0.386151 0.798975 0.460952 0.708271 0.555273
0.061543 1.086174 0.167178 -0.354564 0.717734 0.599231 0.714123 0.546857
-0.124972 0.744824 0.142241 0.609302 0.755821 0.239631 0.750822 0.568903
-0.038612 0.739947 0.211838 -0.162145 0.868801 -0.467818 0.730623 0.588640
-0.013205 1.032847 0.366769 -0.150212 0.950346 -0.272469 0.730064 0.596021
0.008877 1.082792 0.141570 -0.241340 0.667348 0.704520 0.722049 0.541381
-0.184191 1.018679 0.364361 -0.025849 0.973296 -0.228034 0.747166 0.592626
-0.102201 1.024645 0.372356 -0.068575 0.955901 -0.285531 0.738809 0.595976
-0.095931 1.074678 0.136614 -0.037507 0.634999 0.771569 0.735027 0.538413
-0.184811 1.066697 0.144028 0.119694 0.704703 0.699301 0.746124 0.541472
-0.780742 0.000000 -0.780742 -0.711173 0.000000 -0.702994 0.000156 0.250000
-1.104136 0.000000 -0.000000 -0.999969 0.000000 0.000000 0.000156 0.500000
-0.648995 0.000000 0.893265 -0.593127 0.000000 0.805078 0.000156 0.800000
-0.501267 0.000000 -0.983793 -0.460463 0.000000 -0.887661 0.000156 0.150000
-0.983792 0.000000 0.501267 -0.892666 0.000000 0.450667 0.000156 0.650000
-1.050096 0.000000 -0.341197 -0.951811 0.000000 -0.306619 0.000156 0.400000
3 0 1 2
3 3 4 5
3 6 7 8
3 9 0 10
3 11 3 5
3 12 6 13
3 14 9 15
3 16 11 17
3 18 12 19
3 20 21 22
3 23 14 15
3 24 16 25
3 26 18 27
3 28 20 29
3 30 23 31
3 1 24 32
3 4 26 33
3 7 28 34
3 13 8 35
3 36 10 37
3 17 5 38
3 19 13 39
3 15 36 37
3 25 17 40
3 27 19 39
3 29 22 41
3 31 15 42
3 32 25 43
3 33 27 44
3 34 29 45
3 46 31 47
3 2 32 43
3 48 33 44
3 8 34 49
3 10 2 50
3 5 48 51
3 37 52 53
3 40 38 54
3 39 35 55
3 56 37 53
3 57 40 58
3 59 39 55
3 45 41 60
3 42 56 61
3 43 57 62
3 44 59 63
3 64 65 66
3 47 42 67
3 50 43 68
3 51 44 69
3 70 71 72
3 52 50 68
3 38 51 69
3 73 74 75
3 53 76 77
3 78 54 79
3 55 80 74
3 61 53 81
3 58 78 82
3 63 55 83
3 84 60 85
3 67 61 86
3 62 58 87
3 88 89 90
3 91 49 92
3 93 67 94
3 68 62 95
3 96 63 97
3 35 49 80
3 76 68 98
3 99 100 101
3 102 103 104
3 81 77 105
3 82 79 106
3 83 74 99
3 86 81 107
3 87 82 108
3 97 83 109
3 103 85 104
3 110 86 107
3 95 87 111
3 69 96 112
3 113 114 115
3 94 110 116
3 98 95 117
3 54 69 79
3 118 119 120
3 77 98 121
3 122 123 124
3 125 99 101
3 108 106 126
3 109 99 127
3 107 105 128
3 111 108 126
3 123 109 127
3 104 129 130
3 131 107 132
3 117 111 133
3 134 122 135
3 99 74 118
3 116 131 136
3 137 117 133
3 138 106 139
3 121 137 140
3 141 142 143
3 105 121 144
3 132 128 145
3 146 126 147
3 124 127 148
3 149 130 150
3 151 132 152
3 133 146 153
3 122 124 154
3 142 155 156
3 136 151 157
3 140 133 153
3 139 122 154
3 158 125 155
3 144 140 159
3 138 139 160
3 128 144 145
3 126 138 161
3 127 125 158
3 152 145 162
3 163 147 164
3 148 165 166
3 141 150 167
3 157 152 168
3 153 163 169
3 154 148 166
3 142 141 170
3 171 157 172
3 159 153 169
3 160 154 173
3 155 142 174
3 175 159 176
3 161 160 173
3 158 155 177
3 145 175 178
3 147 161 164
3 165 158 179
3 168 162 180
3 181 164 182
3 166 179 183
3 170 167 184
3 172 168 185
3 169 181 186
3 187 166 188
3 174 170 189
3 190 172 191
3 176 169 186
3 173 187 192
3 177 174 189
3 178 176 193
3 194 173 192
3 195 177 196
3 162 178 180
3 164 194 182
3 179 195 196
3 197 182 198
3 183 199 200
3 201 184 202
3 191 185 203
3 186 197 204
3 188 183 205
3 189 201 206
3 207 191 208
3 193 186 204
3 192 188 209
3 210 189 211
3 212 193 213
3 214 192 209
3 196 210 215
3 180 212 216
3 182 214 198
3 199 196 215
3 185 180 216
3 200 217 218
3 206 202 219
3 208 203 220
3 204 221 222
3 205 200 223
3 211 206 224
3 225 208 226
3 213 204 222
3 209 205 227
3 228 211 224
3 229 213 230
3 231 209 227
3 215 228 232
3 216 229 233
3 198 231 234
3 217 215 235
3 203 216 233
3 221 198 234
3 226 220 236
3 222 237 238
3 223 218 239
3 224 219 240
3 241 226 242
3 230 222 243
3 227 223 244
3 245 224 240
3 246 230 243
3 247 227 244
3 232 245 248
3 233 246 249
3 234 247 250
3 248 251 235
3 220 233 236
3 237 234 250
3 218 252 239
3 219 253 254
3 242 236 255
3 238 256 257
3 258 239 259
3 240 260 261
3 262 242 263
3 243 238 264
3 244 258 265
3 266 240 261
3 267 243 264
3 268 244 265
3 248 266 269
3 249 267 270
3 250 268 271
3 251 248 269
3 236 249 270
3 256 250 271
3 239 251 272
3 260 254 273
3 274 255 275
3 257 276 277
3 259 278 279
3 261 280 281
3 263 274 282
3 264 257 283
3 265 259 284
3 285 261 286
3 287 264 283
3 288 265 289
3 269 285 290
3 270 287 291
3 271 288 292
3 272 269 293
3 255 270 291
3 276 271 292
3 278 272 293
3 280 273 294
3 284 279 295
3 286 281 296
3 297 282 298
3 283 277 299
3 289 284 300
3 301 286 302
3 303 283 304
3 305 289 306
3 290 301 307
3 291 303 308
3 292 305 309
3 293 290 307
3 275 291 308
3 310 292 309
3 279 293 311
3 281 294 312
3 282 275 313
3 277 310 299
3 302 296 314
3 298 315 316
3 304 299 317
3 306 300 318
3 319 302 314
3 320 304 317
3 321 306 322
3 307 319 323
3 308 320 324
3 309 321 325
3 311 307 326
3 313 308 324
3 327 309 325
3 295 311 326
3 296 312 328
3 315 313 329
3 299 327 330
3 300 295 331
3 332 316 333
3 317 330 334
3 322 318 335
3 336 314 337
3 338 317 339
3 340 322 341
3 323 336 342
3 324 338 343
3 325 340 344
3 326 323 342
3 329 324 343
3 345 325 344
3 331 326 346
3 347 328 348
3 316 329 349
3 330 345 334
3 318 331 335
3 314 347 337
3 333 350 351
3 339 334 352
3 341 335 353
3 354 337 355
3 356 339 352
3 357 341 358
3 342 354 359
3 343 356 360
3 344 357 361
3 346 342 362
3 349 343 360
3 363 344 361
3 364 346 362
3 365 348 366
3 350 349 367
3 334 363 368
3 335 364 369
3 337 365 370
3 371 30 46
3 21 372 22
3 22 372 41
3 371 46 47
3 41 372 60
3 371 47 93
3 60 373 85
3 371 93 94
3 85 373 129
3 371 94 116
3 129 373 130
3 371 116 136
3 130 373 150
3 371 136 171
3 371 171 190
3 150 373 167
3 371 190 207
3 167 373 184
3 371 207 225
3 184 373 202
3 371 225 241
3 202 373 253
3 371 241 262
3 253 373 254
3 371 262 263
3 254 373 273
3 371 263 297
3 273 373 294
3 371 297 298
3 294 373 312
3 371 298 332
3 312 373 328
3 371 332 333
3 328 373 348
3 371 333 351
3 348 373 366
3 352 368 374
3 358 353 375
3 376 355 377
3 371 351 378
3 379 352 374
3 380 358 381
3 359 376 382
3 360 379 383
3 361 380 384
3 362 359 382
3 372 21 385
3 367 360 383
3 386 361 384
3 369 362 387
3 385 21 388
3 389 367 390
3 368 386 391
3 353 369 375
3 355 370 392
3 351 389 378
3 102 393 394
3 118 395 100
3 396 397 143
3 115 398 399
3 400 395 120
3 396 156 114
3 397 401 143
3 399 101 113
3 104 149 402
3 72 403 70
3 91 404 405
3 406 407 408
3 66 119 73
3 409 404 92
3 406 410 65
3 407 411 412
3 73 75 66
3 84 103 412
3 413 414 415
3 416 417 418
3 134 419 420
3 90 421 422
3 423 417 416
3 134 135 419
3 419 424 425
3 422 426 90
3 413 97 427
3 424 414 427
3 428 424 427
3 424 428 425
3 429 430 88
3 430 418 417
3 426 429 88
3 135 421 89
3 414 423 415
3 401 393 402
3 156 398 115
3 101 100 395
3 393 400 394
3 411 403 72
3 410 119 66
3 75 405 64
3 403 409 70
3 10 0 2
3 379 431 383
3 13 6 8
3 36 9 10
3 17 11 5
3 19 12 13
3 67 110 94
3 25 16 17
3 27 18 19
3 29 20 22
3 31 23 15
3 32 24 25
3 33 26 27
3 34 28 29
3 46 30 31
3 2 1 32
3 48 4 33
3 8 7 34
3 210 228 215
3 233 249 236
3 40 17 38
3 57 58 62
3 56 15 37
3 57 25 40
3 59 27 39
3 45 29 41
3 9 36 15
3 303 320 308
3 44 96 69
3 71 34 45
3 316 350 333
3 50 2 43
3 51 48 44
3 187 188 192
3 52 10 50
3 38 5 51
3 239 278 259
3 78 40 54
3 266 285 269
3 61 56 53
3 202 253 219
3 63 59 55
3 84 45 60
3 67 42 61
3 214 231 198
3 96 44 63
3 404 409 64
3 113 395 400
3 409 403 411
3 96 415 112
3 411 407 64
3 93 47 67
3 199 217 200
3 25 57 43
3 215 232 235
3 71 45 72
3 76 52 68
3 54 38 69
3 80 405 75
3 429 106 79
3 81 53 77
3 82 78 79
3 83 55 74
3 86 61 81
3 87 58 82
3 97 63 83
3 103 84 85
3 110 67 86
3 95 62 87
3 89 424 419
3 88 424 89
3 88 414 424
3 417 423 414
3 88 417 414
3 71 70 92
3 149 143 402
3 228 245 232
3 98 68 95
3 415 96 97
3 413 415 97
3 49 91 80
3 91 405 80
3 77 76 98
3 106 426 422
3 428 427 97
3 430 429 79
3 429 426 106
3 408 103 406
3 251 252 235
3 394 406 102
3 4 48 5
3 108 82 106
3 109 83 99
3 13 35 39
3 111 87 108
3 123 97 109
3 131 110 107
3 117 95 111
3 416 69 112
3 45 84 72
3 113 397 114
3 113 401 397
3 401 113 400
3 231 247 234
3 400 393 401
3 223 258 244
3 137 98 117
3 69 416 79
3 416 418 79
3 410 406 394
3 119 410 120
3 410 394 120
3 334 368 352
3 134 420 123
3 122 134 123
3 155 398 156
3 101 399 125
3 242 274 263
3 52 76 53
3 132 107 128
3 146 111 126
3 124 123 127
3 149 104 130
3 151 131 132
3 258 259 265
3 421 135 139
3 103 408 412
3 100 99 118
3 73 119 74
3 49 71 92
3 85 129 104
3 140 137 133
3 106 422 421
3 139 106 421
3 144 121 140
3 103 102 406
3 142 396 143
3 128 105 144
3 152 132 145
3 163 146 147
3 43 62 68
3 141 149 150
3 157 151 152
3 229 246 233
3 257 277 283
3 119 118 74
3 156 396 142
3 171 136 157
3 159 140 153
3 160 139 154
3 125 399 398
3 155 125 398
3 175 144 159
3 161 138 160
3 163 181 169
3 147 126 161
3 165 127 158
3 168 152 162
3 181 163 164
3 267 287 270
3 170 141 167
3 172 157 168
3 77 121 105
3 187 154 166
3 174 142 170
3 190 171 172
3 176 159 169
3 219 260 240
3 177 155 174
3 178 175 176
3 194 161 173
3 195 158 177
3 162 145 178
3 127 165 148
3 154 187 173
3 185 168 180
3 197 181 182
3 27 59 44
3 201 170 184
3 191 172 185
3 181 197 186
3 380 432 384
3 368 391 374
3 207 190 191
3 193 176 186
3 287 303 291
3 210 177 189
3 212 178 193
3 214 194 192
3 342 359 362
3 8 49 35
3 178 212 180
3 199 179 196
3 221 197 198
3 222 238 243
3 206 201 202
3 208 191 203
3 197 221 204
3 161 194 164
3 211 189 206
3 225 207 208
3 213 193 204
3 282 315 298
3 228 210 211
3 229 212 213
3 231 214 209
3 299 330 317
3 110 131 116
3 170 201 189
3 217 199 215
3 203 185 216
3 99 125 127
3 350 389 351
3 226 208 220
3 221 237 222
3 252 251 239
3 217 252 218
3 241 225 226
3 230 213 222
3 307 323 326
3 245 228 224
3 246 229 230
3 247 231 227
3 179 199 183
3 376 433 382
3 146 163 153
3 252 217 235
3 143 149 141
3 220 203 233
3 237 221 234
3 242 226 236
3 237 256 238
3 258 223 239
3 15 56 42
3 262 241 242
3 188 205 209
3 183 200 205
3 266 245 240
3 267 246 243
3 268 247 244
3 35 80 55
3 245 266 248
3 247 268 250
3 407 65 64
3 235 232 248
3 331 364 335
3 256 237 250
3 165 179 166
3 260 219 254
3 274 242 255
3 256 276 257
3 260 280 261
3 34 71 49
3 205 223 227
3 200 218 223
3 238 257 264
3 285 266 261
3 287 267 264
3 288 268 265
3 124 148 154
3 40 78 58
3 268 288 271
3 272 251 269
3 255 236 270
3 276 256 271
3 278 239 272
3 280 260 273
3 282 274 275
3 276 310 277
3 284 259 279
3 286 261 281
3 297 263 282
3 320 338 324
3 289 265 284
3 301 285 286
3 303 287 283
3 305 288 289
3 285 301 290
3 144 175 145
3 288 305 292
3 212 229 216
3 275 255 291
3 310 276 292
3 279 278 293
3 281 280 294
3 300 284 295
3 302 286 296
3 31 42 47
3 304 283 299
3 306 289 300
3 319 301 302
3 320 303 304
3 321 305 306
3 301 319 307
3 10 52 37
3 305 321 309
3 311 293 307
3 313 275 308
3 327 310 309
3 295 279 311
3 296 281 312
3 315 282 313
3 310 327 299
3 177 210 196
3 332 298 316
3 206 219 224
3 322 306 318
3 336 319 314
3 338 320 317
3 340 321 322
3 319 336 323
3 296 347 314
3 321 340 325
3 166 183 188
3 329 313 324
3 345 327 325
3 331 295 326
3 347 296 328
3 316 315 329
3 327 345 330
3 318 300 331
3 131 151 136
3 339 317 334
3 341 322 335
3 354 336 337
3 356 338 339
3 357 340 341
3 336 354 342
3 338 356 343
3 340 357 344
3 346 326 342
3 349 329 343
3 363 345 344
3 364 331 346
3 365 347 348
3 350 316 349
3 345 363 334
3 106 138 126
3 111 146 133
3 158 195 179
3 347 365 337
3 358 341 353
3 376 354 355
3 379 356 352
3 380 357 358
3 354 376 359
3 356 379 360
3 357 380 361
3 367 434 390
3 367 349 360
3 386 363 361
3 369 364 362
3 370 365 366
3 389 350 367
3 363 386 368
3 353 335 369
3 355 337 370
3 98 137 121
3 381 358 375
3 433 376 377
3 431 379 374
3 432 380 381
3 246 267 249
3 369 435 375
3 269 290 293
3 387 362 382
3 434 367 383
3 436 386 384
3 435 369 387
3 388 21 20
3 194 214 182
3 386 436 391
3 81 105 107
3 377 355 392
3 389 390 378
3 395 118 120
3 397 396 114
3 401 402 143
3 115 399 113
3 102 104 402
3 122 139 135
3 404 91 92
3 407 406 65
3 408 407 412
3 75 64 66
3 72 84 412
3 64 409 411
3 112 423 416
3 135 89 419
3 420 419 425
3 426 88 90
3 425 123 420
3 79 418 430
3 123 428 97
3 425 428 123
3 414 413 427
3 88 430 417
3 421 90 89
3 423 112 415
3 393 102 402
3 114 156 115
3 113 101 395
3 400 120 394
3 412 411 72
3 65 410 66
3 405 404 64
3 409 92 70
3 74 80 75
